<?xml version="1.0" encoding="utf-8"?>
<!-- Generator: Adobe Illustrator 28.0.0, SVG Export Plug-In . SVG Version: 6.00 Build 0)  -->
<svg version="1.1" id="Capa_1" xmlns="http://www.w3.org/2000/svg" xmlns:xlink="http://www.w3.org/1999/xlink" x="0px" y="0px"
	 viewBox="0 0 147.1 164.26" style="enable-background:new 0 0 147.1 164.26;" xml:space="preserve">
<style type="text/css">
	.st0{fill:#435F9E;stroke:#000000;stroke-width:0.5;stroke-miterlimit:10;}
	.st1{fill:#FFFFFF;stroke:#FFFFFF;stroke-width:17;stroke-miterlimit:10;}
	.st2{fill:#8A3E8D;stroke:#000000;stroke-width:0.5;stroke-miterlimit:10;}
	.st3{fill:#573F87;stroke:#000000;stroke-width:0.5;stroke-miterlimit:10;}
	.st4{fill:none;}
	.st5{fill:#499169;}
	.st6{fill:#435F9E;}
	.st7{fill:#FFFFFF;}
	.st8{fill:#FFFFFF;stroke:#000000;stroke-width:0.5;stroke-miterlimit:10;}
	.st9{fill:#C5384D;}
	.st10{fill:#C4A000;stroke:#C4A000;stroke-width:17;stroke-miterlimit:10;}
	.st11{fill:#D09C00;stroke:#C4A000;stroke-width:17;stroke-miterlimit:10;}
	.st12{fill:#FFFFFF;stroke:#FFFFFF;stroke-width:0.25;stroke-miterlimit:10;}
	.st13{fill:#435F9E;stroke:#FFFFFF;stroke-width:3;stroke-miterlimit:10;}
	.st14{fill:#C5384D;stroke:#FFFFFF;stroke-width:3;stroke-miterlimit:10;}
	.st15{fill:#499169;stroke:#499169;stroke-width:17;stroke-miterlimit:10;}
	.st16{fill:none;stroke:#FFFFFF;stroke-width:3;stroke-miterlimit:10;}
	.st17{fill:#499169;stroke:#FFFFFF;stroke-width:3;stroke-miterlimit:10;}
	.st18{fill:#499169;stroke:#000000;stroke-width:0.5;stroke-miterlimit:10;}
	.st19{fill:#C5384D;stroke:#000000;stroke-width:0.5;stroke-miterlimit:10;}
	.st20{fill:#C5384D;stroke:#C5384D;stroke-width:0.25;stroke-miterlimit:10;}
	.st21{fill:#FFDE00;stroke:#000000;stroke-width:0.5;stroke-miterlimit:10;}
	.st22{fill:#82368C;stroke:#000000;stroke-width:0.5;stroke-miterlimit:10;}
	.st23{fill:#00A19A;stroke:#000000;stroke-width:0.5;stroke-miterlimit:10;}
	.st24{fill:#009640;}
	.st25{fill:#435F9E;stroke:#FFFFFF;stroke-width:0.5;stroke-miterlimit:10;}
	.st26{fill:#FFFFFF;stroke:#435F9E;stroke-width:0.5;stroke-miterlimit:10;}
	.st27{fill:#FFFFFF;stroke:#C5384D;stroke-width:0.5;stroke-miterlimit:10;}
	.st28{fill:#C5384D;stroke:#FFFFFF;stroke-width:0.5;stroke-miterlimit:10;}
	.st29{fill:#FFFFFF;stroke:#499169;stroke-width:0.5;stroke-miterlimit:10;}
	.st30{fill:#499169;stroke:#FFFFFF;stroke-width:0.3;stroke-miterlimit:10;}
	.st31{fill:#499169;stroke:#FFFFFF;stroke-width:0.2;stroke-miterlimit:10;}
	.st32{fill:#E4AA00;}
	.st33{fill:#FFFFFF;stroke:#C4A000;stroke-width:0.5;stroke-miterlimit:10;}
</style>
<g>
	<path class="st4" d="M101.57,98.41c-3.54-1.74-8.49-3.46-14.77-5.17v41.94c5.9-0.89,10.94-2.61,15.11-5.19
		c6.36-3.94,9.55-9.29,9.55-16.06C111.46,106.83,108.16,101.65,101.57,98.41z"/>
	<path class="st4" d="M49.08,38.33c-5.69,3.59-8.54,8.35-8.54,14.29c0,5.41,2.29,9.47,6.86,12.18c3.47,2.05,9.23,4.05,17.26,6V33.43
		C58.31,34.18,53.1,35.8,49.08,38.33z"/>
	<path class="st5" d="M121.08,90.43c-5.18-5.14-11.39-8.92-18.65-11.36c-4.35-1.46-9.63-2.93-15.8-4.41V33.83
		c12.6,2.8,19.61,10.07,21.01,21.83h17.89c-0.57-12.19-5.65-21.62-15.24-28.29c-6.49-4.51-14.4-7.46-23.66-8.92V2.98
		c0-1.65-1.33-2.98-2.98-2.98H67.76c-1.65,0-2.98,1.33-2.98,2.98v14.73c-11.39,0.97-20.81,4.13-28.2,9.57
		C27.58,33.9,23.09,42.37,23.09,52.7c0,9.17,3.46,16.51,10.37,22.02c6.48,5.17,16.96,9.27,31.33,12.32v46.01
		c-5.89-1.08-11.2-3.01-15.9-5.8c-7.67-4.56-11.98-11.59-12.92-21.11h-17.7c0.51,12.65,5.6,23.01,15.29,31.07
		c7.47,6.22,17.9,10.01,31.23,11.44v12.62c0,1.65,1.33,2.98,2.98,2.98h15.88c1.65,0,2.98-1.33,2.98-2.98V148.8
		c11.12-1.2,20.46-4.63,27.97-10.37c9.5-7.25,14.25-16.36,14.25-27.33C128.84,102.46,126.25,95.57,121.08,90.43z M47.75,63.93
		c-4.51-2.67-6.77-6.67-6.77-12.01c0-5.86,2.81-10.56,8.42-14.1c3.97-2.5,9.11-4.1,15.38-4.83v36.87
		C56.86,67.93,51.17,65.95,47.75,63.93z M101.53,128.25c-4.11,2.54-9.09,4.24-14.9,5.12V91.99c6.19,1.69,11.08,3.39,14.57,5.1
		c6.5,3.19,9.75,8.3,9.75,15.32C110.95,119.09,107.81,124.37,101.53,128.25z"/>
</g>
</svg>
