<?xml version="1.0" encoding="utf-8"?>
<!-- Generator: Adobe Illustrator 28.0.0, SVG Export Plug-In . SVG Version: 6.00 Build 0)  -->
<svg version="1.1" id="Capa_1" xmlns="http://www.w3.org/2000/svg" xmlns:xlink="http://www.w3.org/1999/xlink" x="0px" y="0px"
	 viewBox="0 0 147.1 164.26" style="enable-background:new 0 0 147.1 164.26;" xml:space="preserve">
<style type="text/css">
	.st0{fill:#435F9E;stroke:#000000;stroke-width:0.5;stroke-miterlimit:10;}
	.st1{fill:#FFFFFF;stroke:#FFFFFF;stroke-width:17;stroke-miterlimit:10;}
	.st2{fill:#8A3E8D;stroke:#000000;stroke-width:0.5;stroke-miterlimit:10;}
	.st3{fill:#573F87;stroke:#000000;stroke-width:0.5;stroke-miterlimit:10;}
	.st4{fill:none;}
	.st5{fill:#499169;}
	.st6{fill:#435F9E;}
	.st7{fill:#FFFFFF;}
	.st8{fill:#FFFFFF;stroke:#000000;stroke-width:0.5;stroke-miterlimit:10;}
	.st9{fill:#C5384D;}
	.st10{fill:#C4A000;stroke:#C4A000;stroke-width:17;stroke-miterlimit:10;}
	.st11{fill:#D09C00;stroke:#C4A000;stroke-width:17;stroke-miterlimit:10;}
	.st12{fill:#FFFFFF;stroke:#FFFFFF;stroke-width:0.25;stroke-miterlimit:10;}
	.st13{fill:#435F9E;stroke:#FFFFFF;stroke-width:3;stroke-miterlimit:10;}
	.st14{fill:#C5384D;stroke:#FFFFFF;stroke-width:3;stroke-miterlimit:10;}
	.st15{fill:#499169;stroke:#499169;stroke-width:17;stroke-miterlimit:10;}
	.st16{fill:none;stroke:#FFFFFF;stroke-width:3;stroke-miterlimit:10;}
	.st17{fill:#499169;stroke:#FFFFFF;stroke-width:3;stroke-miterlimit:10;}
	.st18{fill:#499169;stroke:#000000;stroke-width:0.5;stroke-miterlimit:10;}
	.st19{fill:#C5384D;stroke:#000000;stroke-width:0.5;stroke-miterlimit:10;}
	.st20{fill:#C5384D;stroke:#C5384D;stroke-width:0.25;stroke-miterlimit:10;}
	.st21{fill:#FFDE00;stroke:#000000;stroke-width:0.5;stroke-miterlimit:10;}
	.st22{fill:#82368C;stroke:#000000;stroke-width:0.5;stroke-miterlimit:10;}
	.st23{fill:#00A19A;stroke:#000000;stroke-width:0.5;stroke-miterlimit:10;}
	.st24{fill:#009640;}
	.st25{fill:#435F9E;stroke:#FFFFFF;stroke-width:0.5;stroke-miterlimit:10;}
	.st26{fill:#FFFFFF;stroke:#435F9E;stroke-width:0.5;stroke-miterlimit:10;}
	.st27{fill:#FFFFFF;stroke:#C5384D;stroke-width:0.5;stroke-miterlimit:10;}
	.st28{fill:#C5384D;stroke:#FFFFFF;stroke-width:0.5;stroke-miterlimit:10;}
	.st29{fill:#FFFFFF;stroke:#499169;stroke-width:0.5;stroke-miterlimit:10;}
	.st30{fill:#499169;stroke:#FFFFFF;stroke-width:0.3;stroke-miterlimit:10;}
	.st31{fill:#499169;stroke:#FFFFFF;stroke-width:0.2;stroke-miterlimit:10;}
	.st32{fill:#E4AA00;}
	.st33{fill:#FFFFFF;stroke:#C4A000;stroke-width:0.5;stroke-miterlimit:10;}
</style>
<path class="st6" d="M141.13,63.23H96.95c-2.49,0-4.5-2.02-4.5-4.5V10.59c0-2.49-2.02-4.5-4.5-4.5H59.16c-2.49,0-4.5,2.02-4.5,4.5
	v48.14c0,2.49-2.02,4.5-4.5,4.5H5.97c-2.49,0-4.5,2.02-4.5,4.5v28.79c0,2.49,2.02,4.5,4.5,4.5h44.18c2.49,0,4.5,2.02,4.5,4.5v48.14
	c0,2.49,2.02,4.5,4.5,4.5h28.79c2.49,0,4.5-2.02,4.5-4.5v-48.14c0-2.49,2.02-4.5,4.5-4.5h44.18c2.49,0,4.5-2.02,4.5-4.5V67.73
	C145.63,65.25,143.62,63.23,141.13,63.23z"/>
</svg>
