<?xml version="1.0" encoding="utf-8"?>
<!-- Generator: Adobe Illustrator 28.2.0, SVG Export Plug-In . SVG Version: 6.00 Build 0)  -->
<svg version="1.1" id="Layer_1" xmlns="http://www.w3.org/2000/svg" xmlns:xlink="http://www.w3.org/1999/xlink" x="0px" y="0px"
	 viewBox="0 0 800 800" style="enable-background:new 0 0 800 800;" xml:space="preserve">
<style type="text/css">
	.st0{fill:#FFFFFF;}
</style>
<g>
	<g>
		<path class="st0" d="M309.6,292.1h-11.4H222v69.8h81.8c14.6,0,27.3-3.8,27.3-37.4S309.6,292.1,309.6,292.1z"/>
	</g>
</g>
<g>
	<g>
		<path class="st0" d="M309.6,412.7H222v88.8h76.8c1.3,0,3.2,0,5.7,0c12.7,0,36.8-5.1,36.8-43.1C342,413.3,309.6,412.7,309.6,412.7z
			"/>
	</g>
</g>
<g>
	<g>
		<path class="st0" d="M598.9,0.3H200.5C90.1,0.3,0,90.4,0,200.8v399c0,109.8,90.1,199.8,200.5,199.8h399
			c110.4,0,200.5-90.1,200.5-200.5V200.8C799.4,90.4,709.3,0.3,598.9,0.3z M469.5,254.1h133.2v31.7H469.5V254.1z M407.3,462.8
			c0,99-97.7,102.1-97.7,102.1h-90.1H217h-64.7V235.1h64.1h2.5H309c48.9,0,87.5,27.9,87.5,86.3s-46.9,61.5-46.9,61.5
			C411.7,382.2,407.3,462.8,407.3,462.8z M646.5,457.1H486c0,63.4,54.6,58.4,54.6,58.4c51.4,0,49.5-33,49.5-33h54.6
			c0,88.8-105.9,85-105.9,85c-126.9,0-118.6-125-118.6-125s0-125.6,118.6-125.6C663.6,316.3,646.5,457.1,646.5,457.1z"/>
	</g>
</g>
<g>
	<g>
		<path class="st0" d="M539.9,362.6c-47.6,0-54.6,50.1-54.6,50.1h101.5C586.8,412.7,587.5,362.6,539.9,362.6z"/>
	</g>
</g>
</svg>
