<?xml version="1.0" encoding="utf-8"?>
<!-- Generator: Adobe Illustrator 28.0.0, SVG Export Plug-In . SVG Version: 6.00 Build 0)  -->
<svg version="1.1" id="Capa_1" xmlns="http://www.w3.org/2000/svg" xmlns:xlink="http://www.w3.org/1999/xlink" x="0px" y="0px"
	 viewBox="0 0 88 66" style="enable-background:new 0 0 88 66;" xml:space="preserve">
<style type="text/css">
	.st0{fill:#FFFFFF;}
</style>
<path class="st0" d="M0.25,17.5V60c0,3.17,2.58,5.75,5.75,5.75h13.75V32.12L0.25,17.5z"/>
<path class="st0" d="M82,65.75c3.17,0,5.75-2.58,5.75-5.75V17.5l-19.6,14.7L68,32v33.75H82z"/>
<path class="st0" d="M68.25,31.5l19.5-14.62V9c0-3.39-1.81-6.31-4.84-7.83C79.88-0.34,76.46-0.03,73.75,2L73.6,1.8L68,6h0.25V31.5z"
	/>
<polygon class="st0" points="67.75,31.88 67.75,6.5 44,24.31 20.25,6.5 20.25,32 20,32 44,50 43.85,49.8 "/>
<path class="st0" d="M14.25,2c-2.71-2.03-6.14-2.34-9.17-0.83C2.06,2.69,0.25,5.61,0.25,9v7.88l19.5,14.62V6.12L14.25,2z"/>
</svg>
