<?xml version="1.0" encoding="utf-8"?>
<!-- Generator: Adobe Illustrator 28.0.0, SVG Export Plug-In . SVG Version: 6.00 Build 0)  -->
<svg version="1.1" id="Capa_1" xmlns="http://www.w3.org/2000/svg" xmlns:xlink="http://www.w3.org/1999/xlink" x="0px" y="0px"
	 viewBox="0 0 30 30" style="enable-background:new 0 0 30 30;" xml:space="preserve">
<style type="text/css">
	.st0{fill:#FFFFFF;}
</style>
<path class="st0" d="M8.75,0C3.92,0,0,3.93,0,8.75v12.5C0,26.08,3.93,30,8.75,30h12.5c4.82,0,8.75-3.93,8.75-8.75V8.75
	C30,3.92,26.07,0,21.25,0H8.75z M23.75,5C24.44,5,25,5.56,25,6.25S24.44,7.5,23.75,7.5S22.5,6.94,22.5,6.25S23.06,5,23.75,5z
	 M15,7.5c4.14,0,7.5,3.36,7.5,7.5s-3.36,7.5-7.5,7.5S7.5,19.14,7.5,15S10.86,7.5,15,7.5z M15,10c-2.76,0-5,2.24-5,5s2.24,5,5,5
	s5-2.24,5-5S17.76,10,15,10z"/>
</svg>
