<?xml version="1.0" encoding="utf-8"?>
<!-- Generator: Adobe Illustrator 28.0.0, SVG Export Plug-In . SVG Version: 6.00 Build 0)  -->
<svg version="1.1" id="Capa_1" xmlns="http://www.w3.org/2000/svg" xmlns:xlink="http://www.w3.org/1999/xlink" x="0px" y="0px"
	 viewBox="0 0 30 30" style="enable-background:new 0 0 30 30;" xml:space="preserve">
<style type="text/css">
	.st0{fill:#FFFFFF;}
</style>
<path class="st0" d="M27.27,0H2.73C1.22,0,0,1.22,0,2.73v24.55C0,28.78,1.22,30,2.73,30h24.55c1.51,0,2.73-1.22,2.73-2.73V2.73
	C30,1.22,28.78,0,27.27,0z M9.48,24.55H5.46V11.6h4.02V24.55z M7.43,9.75c-1.3,0-2.35-1.05-2.35-2.35s1.05-2.34,2.35-2.34
	c1.29,0,2.34,1.05,2.34,2.34C9.77,8.7,8.72,9.75,7.43,9.75z M24.55,24.55h-4.02v-6.29c0-1.5-0.03-3.43-2.09-3.43
	c-2.09,0-2.41,1.63-2.41,3.32v6.4h-4.02V11.6h3.86v1.77h0.05c0.54-1.02,1.85-2.09,3.81-2.09c4.07,0,4.83,2.68,4.83,6.17
	C24.55,17.45,24.55,24.55,24.55,24.55z"/>
</svg>
